<svg xmlns="http://www.w3.org/2000/svg" viewBox="0 0 800 1000" preserveAspectRatio="xMidYMid meet" font-family="JetBrains Mono, ui-monospace, monospace">
  
  <rect width="800" height="1000" fill="#F4EFE3"></rect>

  
  <g stroke="#3A5A40" stroke-width="1.2" fill="none">
    <path d="M22 22 L62 22 M22 22 L22 62"></path>
    <path d="M778 22 L738 22 M778 22 L778 62"></path>
    <path d="M22 978 L62 978 M22 978 L22 938"></path>
    <path d="M778 978 L738 978 M778 978 L778 938"></path>
  </g>

  
  <g fill="#3A5A40">
    <text x="60" y="56" font-size="13" letter-spacing="3">OUTPUT · SPECIMEN</text>
    <text x="60" y="76" font-size="10" letter-spacing="2.2" fill="#7C8076">CONTENT GENERATED · 06.2025 · DRAFT v1.2</text>
  </g>
  <text x="740" y="56" font-size="10" letter-spacing="2.4" fill="#3A5A40" text-anchor="end">[ FIG · 03 ]</text>

  
  <g transform="translate(80 120)">
    <rect width="640" height="780" fill="#FAF6EB" stroke="#3A5A40" stroke-width="1"></rect>

    
    <rect x="0" y="0" width="640" height="44" fill="#3A5A40"></rect>
    <g fill="#F4EFE3" font-size="10" letter-spacing="2.4">
      <circle cx="20" cy="22" r="4" fill="#A8B095"></circle>
      <text x="34" y="26">AI · GENERATED</text>
      <text x="200" y="26" opacity="0.7">SOURCE — OS / RESEARCH#04</text>
    </g>
    <text x="620" y="26" text-anchor="end" fill="#F4EFE3" font-size="10" letter-spacing="2.4" opacity="0.7">14:32:01</text>

    
    <g transform="translate(40 78)">
      <rect width="120" height="22" fill="none" stroke="#3A5A40" stroke-width="0.8"></rect>
      <text x="60" y="15" text-anchor="middle" font-size="9.5" letter-spacing="2" fill="#3A5A40">JAPANDI · BATHTUB</text>
    </g>

    
    <g font-family="Space Grotesk, sans-serif" fill="#1C2420">
      <text x="40" y="148" font-size="30" font-weight="600" letter-spacing="-0.6">Vì sao bồn tắm</text>
      <text x="40" y="184" font-size="30" font-weight="600" letter-spacing="-0.6">là một nghi lễ?</text>
    </g>

    
    <text x="40" y="216" font-family="Space Grotesk, sans-serif" font-size="13" fill="#3A463C" letter-spacing="0.2">Nội thất cao cấp · góc nhìn từ một thiết kế Nhật-Bắc Âu.</text>

    
    <line x1="40" y1="240" x2="600" y2="240" stroke="#3A5A40" stroke-width="0.6" opacity="0.4"></line>

    
    <g fill="#3A463C" opacity="0.85">
      <rect x="40" y="262" width="560" height="6"></rect>
      <rect x="40" y="278" width="540" height="6"></rect>
      <rect x="40" y="294" width="560" height="6"></rect>
      <rect x="40" y="310" width="420" height="6"></rect>
    </g>

    
    <g transform="translate(40 350)">
      <line x1="0" y1="0" x2="0" y2="80" stroke="#3A5A40" stroke-width="2"></line>
      <text x="20" y="22" font-family="Space Grotesk, sans-serif" font-size="15" font-style="italic" fill="#1C2420">&#34;Bồn tắm không phải nội thất —</text>
      <text x="20" y="44" font-family="Space Grotesk, sans-serif" font-size="15" font-style="italic" fill="#1C2420">nó là 30 phút bạn dành riêng cho mình.&#34;</text>
      <text x="20" y="70" font-size="9.5" letter-spacing="2.2" fill="#7C8076">— THUỶ NGUYÊN · BRAND VOICE</text>
    </g>

    
    <g fill="#3A463C" opacity="0.85">
      <rect x="40" y="456" width="560" height="6"></rect>
      <rect x="40" y="472" width="520" height="6"></rect>
      <rect x="40" y="488" width="560" height="6"></rect>
      <rect x="40" y="504" width="380" height="6"></rect>
    </g>

    
    <g transform="translate(40 540)">
      <rect width="560" height="120" fill="#F4EFE3" stroke="#3A5A40" stroke-width="0.8"></rect>
      <g stroke="#3A5A40" stroke-width="0.8" fill="none" opacity="0.6">
        
        <path d="M120 90 Q120 60 150 60 L410 60 Q440 60 440 90 L440 96 Q440 102 434 102 L126 102 Q120 102 120 96 Z"></path>
        <line x1="120" y1="84" x2="440" y2="84" stroke-width="0.4"></line>
        <line x1="155" y1="60" x2="155" y2="50"></line>
        <line x1="405" y1="60" x2="405" y2="50"></line>
      </g>
      <text x="280" y="32" text-anchor="middle" font-size="9.5" letter-spacing="2.2" fill="#7C8076">FIG · BATHTUB SILHOUETTE / 1620MM</text>
    </g>

    
    <g fill="#3A463C" opacity="0.85">
      <rect x="40" y="690" width="560" height="6"></rect>
      <rect x="40" y="706" width="540" height="6"></rect>
      <rect x="40" y="722" width="320" height="6"></rect>
    </g>

    
    <line x1="40" y1="748" x2="600" y2="748" stroke="#3A5A40" stroke-width="0.4" opacity="0.4"></line>
    <g fill="#7C8076" font-size="9" letter-spacing="2">
      <text x="40" y="766">WORDS · 487 · READ 2&#39;</text>
      <text x="600" y="766" text-anchor="end">CHANNEL · FB / WEB / LANDING</text>
    </g>
  </g>

  
  <g fill="#7C8076" font-size="9.5" letter-spacing="2">
    <text x="60" y="952">GENERATED IN 4.2s · NO HUMAN DRAFT</text>
  </g>
  <text x="740" y="952" font-size="9.5" text-anchor="end" letter-spacing="2" fill="#3A5A40">SPECIMEN · 1 OF 240+</text>
</svg>